<?xml version="1.0" encoding="UTF-8"?>
<svg version="1.1" xmlns="http://www.w3.org/2000/svg" width="2080" height="2080">
<path d="M0 0 C0.98806641 0.58958496 1.97613281 1.17916992 2.99414062 1.78662109 C15.90679207 9.50595763 28.60278176 17.47624277 41 26 C41.79470703 26.54624023 42.58941406 27.09248047 43.40820312 27.65527344 C58.66190675 38.17444828 73.98508455 48.78029514 88.2109375 60.671875 C91.03161383 63.02638914 93.88436705 65.336468 96.74438477 67.64282227 C108.25580707 76.93648502 119.47694118 86.49780943 130.33203125 96.55078125 C132.54231351 98.57983978 134.78134175 100.55199265 137.0625 102.5 C140.87211101 105.79479871 144.39029267 109.36173915 147.92504883 112.94433594 C151.21333666 116.26066033 154.62488097 119.356568 158.16796875 122.39453125 C162.54570569 126.23088495 166.52125568 130.40119236 170.3125 134.8125 C173.07618029 138.02333755 175.98619596 141.02267165 179 144 C182.54918157 147.5117655 185.91968457 151.09008901 189.1640625 154.8828125 C191.3520617 157.40599455 193.61293113 159.85554519 195.875 162.3125 C199.96437787 166.79662928 203.84619021 171.40267238 207.65625 176.125 C209.75016189 178.69353192 211.88170686 181.22031607 214.03662109 183.73730469 C225.05517298 196.61852568 235.03387959 210.29836664 245 224 C245.50257324 224.6904541 246.00514648 225.3809082 246.52294922 226.09228516 C267.89304089 255.58199852 287.06955132 286.77027543 304 319 C304.57347168 320.0813623 305.14694336 321.16272461 305.73779297 322.27685547 C324.31551362 357.31854246 339.88326299 393.58625691 353 431 C353.4237793 432.20414551 353.84755859 433.40829102 354.28417969 434.64892578 C381.37395612 512.18065718 396.32842379 594.82207168 331 1023 C330.44699219 1024.267229 330.44699219 1024.267229 329.8828125 1025.56005859 C314.67411059 1060.39714449 297.0242153 1093.7055609 277 1126 C275.99333299 1127.63271596 274.9868036 1129.26551679 273.98046875 1130.8984375 C257.53940223 1157.48386193 239.36267053 1183.19951471 219.42382812 1207.27636719 C217.41159527 1209.71230065 215.4269225 1212.17042475 213.4375 1214.625 C205.42714381 1224.39265553 197.17344317 1233.92410232 188.58984375 1243.19140625 C186.15516094 1245.83173346 183.76126942 1248.50346386 181.375 1251.1875 C177.76088606 1255.22110931 173.98032111 1259.04197502 170.125 1262.84375 C167.51445781 1265.49268251 165.10196131 1268.28105641 162.67578125 1271.09765625 C158.82471894 1275.46937501 154.67027085 1279.45991033 150.25 1283.25 C146.84159305 1286.18281528 143.65628432 1289.30098279 140.5 1292.5 C136.79698188 1296.2478917 133.0235326 1299.84424046 129.015625 1303.265625 C126.69885379 1305.25912581 124.44580016 1307.31554388 122.1875 1309.375 C117.46456718 1313.63279549 112.58773608 1317.66216372 107.64453125 1321.66015625 C105.80578051 1323.15823583 103.98034049 1324.67160554 102.15625 1326.1875 C87.32461733 1338.50500071 72.24281745 1350.36109121 56.38867188 1361.33837891 C53.7340167 1363.18502477 51.09334618 1365.05074867 48.453125 1366.91796875 C37.67937515 1374.51443953 26.825455 1381.80233443 15.48339844 1388.52050781 C12.67860478 1390.19147218 9.88985645 1391.88758864 7.1015625 1393.5859375 C-6.39842742 1401.78835675 -20.04642486 1409.59769793 -34 1417 C-35.00659668 1417.53947266 -36.01319336 1418.07894531 -37.05029297 1418.63476562 C-110.35933612 1457.86262578 -191.25796818 1485.56828268 -351 1509 C-351.70439209 1509.05113953 -352.40878418 1509.10227905 -353.13452148 1509.15496826 C-437.7935833 1515.1889784 -523.27016358 1508.60085412 -828 1398 C-828.98806641 1397.41041504 -829.97613281 1396.82083008 -830.99414062 1396.21337891 C-843.90679207 1388.49404237 -856.60278176 1380.52375723 -869 1372 C-869.79470703 1371.45375977 -870.58941406 1370.90751953 -871.40820312 1370.34472656 C-888.84765466 1358.31822831 -905.9563889 1345.93894499 -922.27636719 1332.42382812 C-924.71230065 1330.41159527 -927.17042475 1328.4269225 -929.625 1326.4375 C-938.93139133 1318.80542195 -948.0493287 1310.97140903 -956.88037109 1302.79345703 C-959.56473661 1300.30773276 -962.28051421 1297.87569172 -965.0625 1295.5 C-968.87211101 1292.20520129 -972.39029267 1288.63826085 -975.92504883 1285.05566406 C-979.21333666 1281.73933967 -982.62488097 1278.643432 -986.16796875 1275.60546875 C-990.54570569 1271.76911505 -994.52125568 1267.59880764 -998.3125 1263.1875 C-1001.07618029 1259.97666245 -1003.98619596 1256.97732835 -1007 1254 C-1010.54918157 1250.4882345 -1013.91968457 1246.90991099 -1017.1640625 1243.1171875 C-1019.3520617 1240.59400545 -1021.61293113 1238.14445481 -1023.875 1235.6875 C-1027.96437787 1231.20337072 -1031.84619021 1226.59732762 -1035.65625 1221.875 C-1037.75016189 1219.30646808 -1039.88170686 1216.77968393 -1042.03662109 1214.26269531 C-1077.1441552 1173.22028702 -1106.6579214 1126.56975328 -1132 1079 C-1132.54237305 1077.98905273 -1133.08474609 1076.97810547 -1133.64355469 1075.93652344 C-1148.36745081 1048.41736618 -1161.13527744 1020.04833436 -1172.2746582 990.8973999 C-1173.00385552 988.98991446 -1173.73727332 987.08408406 -1174.47070312 985.17822266 C-1201.76132016 913.98751063 -1218.49504943 838.05097204 -1224 762 C-1224.05113953 761.29560791 -1224.10227905 760.59121582 -1224.15496826 759.86547852 C-1230.1889784 675.2064167 -1223.60085412 589.72983642 -1113 285 C-1112.11779785 283.52225098 -1112.11779785 283.52225098 -1111.21777344 282.01464844 C-1103.49696747 269.09884905 -1095.52467101 256.40073235 -1087 244 C-1086.443125 243.18934082 -1085.88625 242.37868164 -1085.3125 241.54345703 C-1077.89597077 230.7807984 -1070.29337957 220.18007059 -1062.36425781 209.7890625 C-1061.07854097 208.10299717 -1059.80024173 206.41156849 -1058.5234375 204.71875 C-1045.38356482 187.42719116 -1031.34808305 170.74075351 -1016.58984375 154.80859375 C-1014.15516094 152.16826654 -1011.76126942 149.49653614 -1009.375 146.8125 C-1005.76088606 142.77889069 -1001.98032111 138.95802498 -998.125 135.15625 C-995.51445781 132.50731749 -993.10196131 129.71894359 -990.67578125 126.90234375 C-986.82471894 122.53062499 -982.67027085 118.54008967 -978.25 114.75 C-974.84159305 111.81718472 -971.65628432 108.69901721 -968.5 105.5 C-964.79698188 101.7521083 -961.0235326 98.15575954 -957.015625 94.734375 C-954.69885379 92.74087419 -952.44580016 90.68445612 -950.1875 88.625 C-945.87225424 84.73075382 -941.42908245 81.03345276 -936.91015625 77.37890625 C-934.33107069 75.27063363 -931.79080984 73.12711626 -929.26049805 70.96118164 C-888.213616 35.85779498 -841.57084139 6.34265827 -794 -19 C-792.98905273 -19.54237305 -791.97810547 -20.08474609 -790.93652344 -20.64355469 C-762.81543697 -35.68950802 -733.81183589 -48.67345616 -704 -60 C-703.32040222 -60.25890015 -702.64080444 -60.51780029 -701.94061279 -60.7845459 C-629.94926119 -88.1567469 -553.87387606 -105.43548351 -477 -111 C-475.94341187 -111.07670929 -475.94341187 -111.07670929 -474.86547852 -111.15496826 C-390.2064167 -117.1889784 -304.72983642 -110.60085412 0 0 Z M-763 145 C-768.60485348 146.7245703 -774.24544829 147.91161396 -780 149 C-780 149.66 -780 150.32 -780 151 C-784.455 151.495 -784.455 151.495 -789 152 C-789 152.66 -789 153.32 -789 154 C-793.455 154.495 -793.455 154.495 -798 155 C-798 155.66 -798 156.32 -798 157 C-800.64 157.33 -803.28 157.66 -806 158 C-806 158.66 -806 159.32 -806 160 C-806.928125 160.061875 -807.85625 160.12375 -808.8125 160.1875 C-813.44002425 160.82153707 -817.37074367 162.83734053 -821.546875 164.84375 C-824 166 -824 166 -827 167 C-827 167.66 -827 168.32 -827 169 C-827.85851562 169.10183594 -828.71703125 169.20367187 -829.6015625 169.30859375 C-833.28495755 170.05797412 -836.05023208 171.32623231 -839.375 173.0625 C-840.43460938 173.61035156 -841.49421875 174.15820312 -842.5859375 174.72265625 C-843.38257813 175.14417969 -844.17921875 175.56570313 -845 176 C-845 176.66 -845 177.32 -845 178 C-845.804375 178.226875 -846.60875 178.45375 -847.4375 178.6875 C-851.91285739 180.33631588 -855.88721318 182.60544412 -860 185 C-860 185.66 -860 186.32 -860 187 C-860.7425 187.28875 -861.485 187.5775 -862.25 187.875 C-864.56739797 188.82302644 -866.77917115 189.84845911 -869 191 C-869 191.66 -869 192.32 -869 193 C-869.72574219 193.268125 -870.45148438 193.53625 -871.19921875 193.8125 C-873.96864024 194.98670381 -876.30919434 196.3394324 -878.8125 198 C-879.99779297 198.7734375 -879.99779297 198.7734375 -881.20703125 199.5625 C-881.79871094 200.036875 -882.39039063 200.51125 -883 201 C-883 201.66 -883 202.32 -883 203 C-883.598125 203.28875 -884.19625 203.5775 -884.8125 203.875 C-887.19327792 205.04742026 -887.19327792 205.04742026 -890 207 C-890 207.66 -890 208.32 -890 209 C-890.598125 209.28875 -891.19625 209.5775 -891.8125 209.875 C-894.19327792 211.04742026 -894.19327792 211.04742026 -897 213 C-897 213.66 -897 214.32 -897 215 C-898.485 215.495 -898.485 215.495 -900 216 C-900 216.66 -900 217.32 -900 218 C-901.485 218.495 -901.485 218.495 -903 219 C-903 219.66 -903 220.32 -903 221 C-904.485 221.495 -904.485 221.495 -906 222 C-906 222.66 -906 223.32 -906 224 C-907.485 224.495 -907.485 224.495 -909 225 C-910.49295255 226.72738084 -910.49295255 226.72738084 -911.875 228.8125 C-914.28315405 232.16841764 -916.75294303 234.43653397 -920 237 C-922.97630004 240.63764364 -922.97630004 240.63764364 -924 245 C-924.66 245 -925.32 245 -926 245 C-926.495 246.485 -926.495 246.485 -927 248 C-927.97753644 249.02196992 -928.9805881 250.01979625 -930 251 C-932.62885085 254.04444816 -932.62885085 254.04444816 -933 258 C-933.66 258 -934.32 258 -935 258 C-938.19560041 262.06573561 -938.19560041 262.06573561 -939 267 C-939.66 267 -940.32 267 -941 267 C-941.67408308 268.26691507 -942.33900497 269.53870749 -943 270.8125 C-943.37125 271.52019531 -943.7425 272.22789062 -944.125 272.95703125 C-945.19685358 275.08920729 -945.19685358 275.08920729 -945 278 C-945.66 278 -946.32 278 -947 278 C-947.495 280.97 -947.495 280.97 -948 284 C-948.66 284 -949.32 284 -950 284 C-950.495 286.97 -950.495 286.97 -951 290 C-951.66 290 -952.32 290 -953 290 C-953.495 292.97 -953.495 292.97 -954 296 C-954.66 296 -955.32 296 -956 296 C-956.33 298.31 -956.66 300.62 -957 303 C-957.66 303 -958.32 303 -959 303 C-959.33 305.64 -959.66 308.28 -960 311 C-960.66 311 -961.32 311 -962 311 C-962.33773438 312.15757812 -962.67546875 313.31515625 -963.0234375 314.5078125 C-963.47389983 316.04689212 -963.92442394 317.58595367 -964.375 319.125 C-964.59671875 319.88554688 -964.8184375 320.64609375 -965.046875 321.4296875 C-968.11450963 331.89573506 -968.11450963 331.89573506 -970.05859375 336.515625 C-971.09747518 339.2572374 -971.59744279 341.8580476 -972.0625 344.75 C-972.89473684 349.89473684 -972.89473684 349.89473684 -974 351 C-974.37168482 353.160418 -974.69791391 355.32875622 -975 357.5 C-975.88888889 363.88888889 -975.88888889 363.88888889 -977 365 C-979.92752582 378.60990578 -979.27971992 392.69333422 -979.25396729 406.52452087 C-979.25627381 409.22368785 -979.25937008 411.92284357 -979.26342177 414.62200743 C-979.2706145 420.4734399 -979.27044498 426.3248354 -979.26532745 432.17626953 C-979.25773808 440.87785694 -979.26164262 449.57941337 -979.26774407 458.2810006 C-979.27825857 473.8255743 -979.27736951 489.37013154 -979.27158624 504.9147068 C-979.26654992 518.51886455 -979.26524416 532.12301627 -979.26763153 545.72717476 C-979.2677843 546.63049246 -979.26793707 547.53381017 -979.26809447 548.46450113 C-979.26871718 552.13161511 -979.26935398 555.79872908 -979.270014 559.46584305 C-979.27612857 593.84887906 -979.2705906 628.23190459 -979.2598202 662.61493899 C-979.25033019 693.14263095 -979.25117797 723.67030623 -979.26074219 754.19799805 C-979.27145855 788.51769678 -979.27569408 822.83738626 -979.26951766 857.15708643 C-979.26887625 860.81772744 -979.26825057 864.47836846 -979.26763153 868.13900948 C-979.26747338 869.04031362 -979.26731522 869.94161776 -979.26715227 870.87023414 C-979.26488018 884.4630468 -979.26753258 898.05585275 -979.27259064 911.64866447 C-979.2783153 927.1096899 -979.27686643 942.57069632 -979.26602915 958.03171938 C-979.26016813 966.67785485 -979.25975649 975.32394913 -979.2673215 983.97008351 C-979.27182219 989.75324806 -979.2689865 995.53637975 -979.26031196 1001.31953945 C-979.25557743 1004.60925708 -979.25499301 1007.8988776 -979.26112393 1011.18859529 C-979.34460938 1034.35019251 -979.34460938 1034.35019251 -975 1057 C-974.835 1058.175625 -974.67 1059.35125 -974.5 1060.5625 C-974.11794455 1063.91759492 -974.11794455 1063.91759492 -973.09375 1066.67578125 C-971.55796187 1071.34348017 -970.55467868 1076.10294537 -969.5 1080.8984375 C-968.67112725 1084.55065804 -967.80157933 1087.6894055 -966 1091 C-965.61709538 1092.99110401 -965.27395385 1094.99100513 -965 1097 C-964.34 1097 -963.68 1097 -963 1097 C-962.938125 1098.093125 -962.87625 1099.18625 -962.8125 1100.3125 C-962.22861778 1104.90357392 -960.53852152 1108.55986588 -958.54296875 1112.703125 C-956.62028204 1116.81134673 -954.90089528 1120.98859161 -953.1875 1125.1875 C-952.87345215 1125.95505615 -952.5594043 1126.7226123 -952.23583984 1127.51342773 C-951.48883461 1129.34158113 -950.74416329 1131.17068793 -950 1133 C-949.34 1133 -948.68 1133 -948 1133 C-947.938125 1133.66 -947.87625 1134.32 -947.8125 1135 C-946.84813391 1138.56073634 -945.19399447 1141.08804315 -943.15625 1144.1328125 C-942 1146 -942 1146 -941 1149 C-940.34 1149 -939.68 1149 -939 1149 C-938.67 1150.65 -938.34 1152.3 -938 1154 C-937.34 1154 -936.68 1154 -936 1154 C-935.67 1155.32 -935.34 1156.64 -935 1158 C-934.34 1158 -933.68 1158 -933 1158 C-932.67 1159.65 -932.34 1161.3 -932 1163 C-931.34 1163 -930.68 1163 -930 1163 C-929.505 1164.98 -929.505 1164.98 -929 1167 C-928.34 1167 -927.68 1167 -927 1167 C-926.690625 1168.0209375 -926.690625 1168.0209375 -926.375 1169.0625 C-924.82424403 1172.37547866 -922.87529276 1174.6578015 -920.4375 1177.3515625 C-919 1179 -919 1179 -917 1182 C-916.34 1182 -915.68 1182 -915 1182 C-914.773125 1182.7425 -914.54625 1183.485 -914.3125 1184.25 C-912.73336584 1187.55866205 -910.8945294 1188.79464426 -908 1191 C-906.66666667 1192.66666667 -905.33333333 1194.33333333 -904 1196 C-902.34997172 1197.35386936 -900.6825613 1198.68678142 -899 1200 C-898.278125 1200.7425 -897.55625 1201.485 -896.8125 1202.25 C-892.80680841 1206.16667622 -888.42006152 1209.56457007 -884 1213 C-883.27941406 1213.57492187 -882.55882812 1214.14984375 -881.81640625 1214.7421875 C-880.09418957 1216.1897673 -880.09418957 1216.1897673 -878 1216 C-878 1216.66 -878 1217.32 -878 1218 C-876.51734899 1219.22707362 -876.51734899 1219.22707362 -874.5703125 1220.3828125 C-873.85746094 1220.82753906 -873.14460938 1221.27226563 -872.41015625 1221.73046875 C-871.65605469 1222.19066406 -870.90195312 1222.65085937 -870.125 1223.125 C-869.37863281 1223.59292969 -868.63226562 1224.06085938 -867.86328125 1224.54296875 C-864.19008398 1227.08262045 -864.19008398 1227.08262045 -860 1228 C-860 1228.66 -860 1229.32 -860 1230 C-859.46375 1230.268125 -858.9275 1230.53625 -858.375 1230.8125 C-857.199375 1231.4003125 -857.199375 1231.4003125 -856 1232 C-855.10152344 1232.44730469 -854.20304687 1232.89460938 -853.27734375 1233.35546875 C-850.80454768 1234.59628776 -848.3400035 1235.84965792 -845.87890625 1237.11328125 C-845.16669922 1237.47615234 -844.45449219 1237.83902344 -843.72070312 1238.21289062 C-842.29379086 1238.93990565 -840.86925458 1239.67160497 -839.44726562 1240.40820312 C-835.42940887 1242.46406105 -835.42940887 1242.46406105 -831 1243 C-831 1243.66 -831 1244.32 -831 1245 C-828.69 1245.33 -826.38 1245.66 -824 1246 C-824 1246.66 -824 1247.32 -824 1248 C-823.03320312 1248.31453125 -822.06640625 1248.6290625 -821.0703125 1248.953125 C-819.75496815 1249.38468531 -818.43988167 1249.81703205 -817.125 1250.25 C-816.43970215 1250.47526367 -815.7544043 1250.70052734 -815.04833984 1250.93261719 C-811.16492038 1252.22557065 -807.38735519 1253.63075852 -803.625 1255.25 C-799.06448222 1257.14766512 -794.9180626 1257.68270564 -790 1258 C-790 1258.66 -790 1259.32 -790 1260 C-789.28714844 1260.12117188 -788.57429687 1260.24234375 -787.83984375 1260.3671875 C-783.54220911 1261.11912896 -779.37687422 1261.88879121 -775.1875 1263.125 C-771.9722454 1264.00761891 -769.31580689 1264.16174668 -766 1264 C-766 1264.66 -766 1265.32 -766 1266 C-749.75723661 1268.87938886 -733.95366421 1269.42676977 -717.48388672 1269.38095093 C-714.7501043 1269.3827524 -712.01633617 1269.38906107 -709.28256035 1269.39513266 C-703.37394248 1269.40588712 -697.46540708 1269.40568924 -691.55678558 1269.39799118 C-682.77000205 1269.3865748 -673.98328722 1269.39248045 -665.19650406 1269.4016161 C-649.49714188 1269.4173629 -633.79781646 1269.41606433 -618.09845084 1269.40737936 C-604.35922941 1269.39981658 -590.62002142 1269.39787009 -576.88079834 1269.4014473 C-575.96752792 1269.40167645 -575.05425751 1269.40190561 -574.11331223 1269.40214171 C-570.40554677 1269.4030758 -566.69778131 1269.40403101 -562.99001586 1269.405021 C-528.24666816 1269.41418686 -493.50334381 1269.4058953 -458.75999972 1269.38973031 C-427.92918002 1269.37549473 -397.0983975 1269.37676867 -366.26757812 1269.39111328 C-331.58557884 1269.407196 -296.90360016 1269.41353668 -262.22159767 1269.40427649 C-258.52079901 1269.40331442 -254.82000033 1269.40237589 -251.11920166 1269.4014473 C-249.75247182 1269.40109145 -249.75247182 1269.40109145 -248.35813127 1269.40072841 C-234.63146905 1269.39732376 -220.90482177 1269.4012923 -207.17816162 1269.40888596 C-191.56187522 1269.41748217 -175.94563115 1269.41528003 -160.32934999 1269.39904372 C-151.60201177 1269.39026787 -142.87476535 1269.38961182 -134.14742961 1269.40098225 C-128.30396457 1269.40775232 -122.46057251 1269.40344599 -116.61711822 1269.39046794 C-113.29710361 1269.38339201 -109.9774173 1269.38244958 -106.65738654 1269.39168589 C-91.49015415 1269.43062128 -76.9482815 1268.64991333 -62 1266 C-62 1265.34 -62 1264.68 -62 1264 C-61.20335937 1263.95101563 -60.40671875 1263.90203125 -59.5859375 1263.8515625 C-57.99652344 1263.73941406 -57.99652344 1263.73941406 -56.375 1263.625 C-55.33085938 1263.55539062 -54.28671875 1263.48578125 -53.2109375 1263.4140625 C-49.89989768 1262.98709143 -47.14264557 1262.10916902 -44 1261 C-41.58677603 1260.36183633 -39.16985072 1259.73755635 -36.75 1259.125 C-31.56299188 1257.77715998 -26.62721372 1256.18017906 -21.6953125 1254.08203125 C-15.90775668 1251.75862116 -9.92842609 1249.92871462 -4 1248 C-4 1247.34 -4 1246.68 -4 1246 C-1.69 1245.67 0.62 1245.34 3 1245 C3 1244.34 3 1243.68 3 1243 C4.23943359 1242.87625 4.23943359 1242.87625 5.50390625 1242.75 C9.79518627 1241.82941255 13.11524319 1240.10151659 16.9375 1238 C17.67025146 1237.60353271 18.40300293 1237.20706543 19.15795898 1236.79858398 C24.34028025 1233.96988869 29.47367714 1231.05599773 34.5625 1228.0625 C35.2114624 1227.68544922 35.8604248 1227.30839844 36.52905273 1226.91992188 C38.05543765 1226.00421602 39.53389803 1225.00941227 41 1224 C41 1223.34 41 1222.68 41 1222 C41.7425 1221.71125 42.485 1221.4225 43.25 1221.125 C45.56739797 1220.17697356 47.77917115 1219.15154089 50 1218 C50 1217.34 50 1216.68 50 1216 C50.66 1215.814375 51.32 1215.62875 52 1215.4375 C55.63406905 1213.69617525 58.18068357 1211.36715439 61.1328125 1208.65625 C63 1207 63 1207 66 1205 C66 1204.34 66 1203.68 66 1203 C66.53625 1202.773125 67.0725 1202.54625 67.625 1202.3125 C72.82836698 1199.43695509 76.41560327 1195.65971575 80 1191 C80.7425 1190.278125 81.485 1189.55625 82.25 1188.8125 C84.2315315 1187.18010877 84.2315315 1187.18010877 84 1185 C84.99 1184.67 85.98 1184.34 87 1184 C87 1183.34 87 1182.68 87 1182 C87.99 1181.67 88.98 1181.34 90 1181 C91.02611949 1179.34928604 92.02308143 1177.68029994 93 1176 C93.680625 1175.34 94.36125 1174.68 95.0625 1174 C97.20164079 1171.79185467 98.03577214 1169.89268359 99 1167 C99.66 1167 100.32 1167 101 1167 C101.33 1166.01 101.66 1165.02 102 1164 C102.66 1163.67 103.32 1163.34 104 1163 C104.65555119 1160.47266765 104.65555119 1160.47266765 105 1158 C105.66 1158 106.32 1158 107 1158 C107.33 1156.68 107.66 1155.36 108 1154 C108.66 1154 109.32 1154 110 1154 C110.30292969 1153.38253906 110.60585937 1152.76507812 110.91796875 1152.12890625 C113.4906718 1146.92808807 116.16926841 1141.83141443 119.08203125 1136.8125 C120.15060733 1135.04124803 120.15060733 1135.04124803 120 1133 C120.66 1133 121.32 1133 122 1133 C122.67260351 1131.23141309 123.33788395 1129.46003984 124 1127.6875 C124.37125 1126.70136719 124.7425 1125.71523437 125.125 1124.69921875 C126.15418502 1121.99728344 126.15418502 1121.99728344 126 1119 C126.66 1119 127.32 1119 128 1119 C128.31453125 1118.09378906 128.6290625 1117.18757813 128.953125 1116.25390625 C132.87361179 1105.09468935 132.87361179 1105.09468935 135.1875 1100.1875 C136.87525211 1096.54087094 137.79585118 1093.00232655 138.5625 1089.06640625 C139 1087 139 1087 140.125 1083.75 C141.00221477 1080.99303928 141.16887928 1078.87094768 141 1076 C141.66 1076 142.32 1076 143 1076 C143.13277344 1075.21753906 143.26554687 1074.43507813 143.40234375 1073.62890625 C143.57894531 1072.61699219 143.75554687 1071.60507813 143.9375 1070.5625 C144.11152344 1069.55316406 144.28554687 1068.54382812 144.46484375 1067.50390625 C145 1065 145 1065 146 1064 C146.37238718 1061.67258011 146.69836866 1059.33764285 147 1057 C147.88888889 1050.11111111 147.88888889 1050.11111111 149 1049 C151.40934422 1036.182457 151.28287756 1023.28483668 151.25396729 1010.29673767 C151.25627528 1008.02497796 151.25945407 1005.753219 151.26342177 1003.48146158 C151.27173172 997.27568427 151.26766184 991.06996888 151.26144934 984.86419141 C151.25737725 978.84724315 151.26272701 972.83030753 151.26774407 966.81336178 C151.27824673 953.75668216 151.27737432 940.70002217 151.27158624 927.64334071 C151.26654627 916.21753777 151.26524586 904.79174201 151.26763153 893.36593819 C151.2677843 892.60672416 151.26793707 891.84751014 151.26809447 891.06528963 C151.26871719 887.98305825 151.269354 884.90082688 151.270014 881.81859551 C151.27612565 852.93234107 151.27059504 824.04609911 151.2598202 795.1598466 C151.25032874 769.51923676 151.25117979 743.87864678 151.26074219 718.23803711 C151.2714606 689.40159744 151.2756931 660.56516878 151.26951766 631.7287274 C151.26887627 628.65256695 151.26825058 625.5764065 151.26763153 622.50024605 C151.26747338 621.74286863 151.26731522 620.98549122 151.26715227 620.20516298 C151.2648812 608.78832703 151.26753063 597.37149907 151.27259064 585.95466423 C151.27831753 572.96874245 151.2768616 559.9828433 151.26602915 546.99692433 C151.26068643 540.37434871 151.25870102 533.75180447 151.26532745 527.12922668 C151.27130679 521.06151531 151.26797906 514.99388137 151.25737235 508.92617697 C151.25514675 506.73663241 151.25625563 504.54708124 151.26112393 502.35754096 C151.30982729 478.62387469 147.8191878 460.2393072 137 439 C136.34 439 135.68 439 135 439 C134.89558594 438.42765625 134.79117187 437.8553125 134.68359375 437.265625 C133.88840501 434.63014232 132.72098509 432.93968692 131.0625 430.75 C130.53785156 430.04359375 130.01320313 429.3371875 129.47265625 428.609375 C128.98667969 428.07828125 128.50070312 427.5471875 128 427 C127.34 427 126.68 427 126 427 C125.60748047 426.10087891 125.60748047 426.10087891 125.20703125 425.18359375 C123.92779812 422.86938236 122.73749558 421.70340555 120.6875 420.0625 C118.38132732 418.17737129 116.38436495 416.35573077 114.3125 414.1875 C112.0740614 412.07005808 111.00607197 411.334008 108 411 C108 410.34 108 409.68 108 409 C106.88625 408.34 105.7725 407.68 104.625 407 C103.99851562 406.62875 103.37203125 406.2575 102.7265625 405.875 C101.02527333 404.84931652 101.02527333 404.84931652 99 405 C99 404.34 99 403.68 99 403 C82.01119754 394.48742503 82.01119754 394.48742503 63.86328125 389.359375 C62 389 62 389 61 388 C39.34907559 385.03678657 16.00577385 383.96358314 -5 391 C-5.87785156 391.28359375 -6.75570312 391.5671875 -7.66015625 391.859375 C-9.78056791 392.55416213 -11.89277937 393.26637504 -14 394 C-14 394.66 -14 395.32 -14 396 C-14.83789062 396.08636719 -15.67578125 396.17273438 -16.5390625 396.26171875 C-20.58961855 397.12577642 -23.82325536 398.76871685 -27.375 400.8125 C-28.40306763 401.39668701 -28.40306763 401.39668701 -29.4519043 401.99267578 C-38.27163182 407.14462493 -48.16395804 413.29868509 -55 421 C-55 421.66 -55 422.32 -55 423 C-55.99 423.33 -56.98 423.66 -58 424 C-59.65899675 425.55847144 -59.65899675 425.55847144 -61.1875 427.4375 C-61.71730469 428.05496094 -62.24710938 428.67242188 -62.79296875 429.30859375 C-64.1936275 430.92500802 -64.1936275 430.92500802 -64 433 C-64.66 433 -65.32 433 -66 433 C-70.57973664 438.26050831 -74.01554909 444.53723537 -77.375 450.625 C-77.72062988 451.23351807 -78.06625977 451.84203613 -78.42236328 452.46899414 C-80.85238332 457.0002096 -81.60397856 460.87435106 -82 466 C-82.66 466 -83.32 466 -84 466 C-84.13277344 466.78246094 -84.26554687 467.56492187 -84.40234375 468.37109375 C-84.57894531 469.38300781 -84.75554688 470.39492188 -84.9375 471.4375 C-85.11152344 472.44683594 -85.28554687 473.45617187 -85.46484375 474.49609375 C-86 477 -86 477 -87 478 C-88.34827635 488.05573627 -88.1370413 498.26500374 -88.11352539 508.38941956 C-88.11324487 510.1203783 -88.11340934 511.85133716 -88.11397648 513.58229584 C-88.11427022 518.30702675 -88.10836331 523.03173217 -88.10140657 527.75645721 C-88.09500391 532.8642073 -88.09446119 537.97195843 -88.0932312 543.07971191 C-88.09035073 551.92141182 -88.08392162 560.76310332 -88.07516479 569.60479927 C-88.0625847 582.40131778 -88.05652801 595.19783319 -88.05223143 607.99435686 C-88.04517111 628.77545586 -88.03437462 649.55655096 -88.02050781 670.33764648 C-88.01968 671.58021483 -88.01885219 672.82278317 -88.01799929 674.1030051 C-88.01209894 682.9228368 -88.00606479 691.74266841 -88 700.5625 C-87.99307129 710.63924148 -87.98620378 720.71598299 -87.97949219 730.79272461 C-87.97825 732.65475096 -87.97825 732.65475096 -87.97698271 734.55439401 C-87.96329116 755.26120961 -87.95353536 775.96802528 -87.94658184 796.67484421 C-87.94210497 809.43776432 -87.93407383 822.20067282 -87.92143703 834.96358752 C-87.91300324 843.70799049 -87.90811868 852.45239079 -87.90601182 861.19679756 C-87.90466871 866.23926969 -87.90167248 871.28172679 -87.89425278 876.32419395 C-87.88747957 880.94481492 -87.88537273 885.56541421 -87.88688838 890.18603968 C-87.8866181 891.85274577 -87.88466118 893.51945268 -87.8807956 895.18615431 C-87.8389025 914.13668153 -87.8389025 914.13668153 -89 922 C-89.33 922.33 -89.66 922.66 -90 923 C-90.45004138 926.24483615 -90.81719274 929.48888101 -91.16210938 932.74609375 C-91.68660689 937.34290941 -92.62280631 941.56409524 -94 946 C-94.42539063 947.51980469 -94.42539063 947.51980469 -94.859375 949.0703125 C-96.9286628 956.16760662 -99.55402731 962.69107509 -102.828125 969.3203125 C-104.20033935 971.97065515 -104.20033935 971.97065515 -104 975 C-104.66 975 -105.32 975 -106 975 C-106.26554687 975.56589844 -106.53109375 976.13179687 -106.8046875 976.71484375 C-107.15789063 977.44832031 -107.51109375 978.18179688 -107.875 978.9375 C-108.22304687 979.66839844 -108.57109375 980.39929687 -108.9296875 981.15234375 C-110 983 -110 983 -112 984 C-112 984.99 -112 985.98 -112 987 C-112.66 987 -113.32 987 -114 987 C-115.60059293 988.62092592 -115.60059293 988.62092592 -117.25 990.6875 C-119.50075728 993.35349133 -121.70049545 995.71010091 -124.4375 997.875 C-125.283125 998.57625 -126.12875 999.2775 -127 1000 C-127 1000.66 -127 1001.32 -127 1002 C-128.32 1002.33 -129.64 1002.66 -131 1003 C-131 1003.66 -131 1004.32 -131 1005 C-132.65 1005.33 -134.3 1005.66 -136 1006 C-136 1006.66 -136 1007.32 -136 1008 C-137.65 1008.33 -139.3 1008.66 -141 1009 C-141 1009.66 -141 1010.32 -141 1011 C-143.31 1011.33 -145.62 1011.66 -148 1012 C-148 1012.66 -148 1013.32 -148 1014 C-150.64 1014.33 -153.28 1014.66 -156 1015 C-156 1015.66 -156 1016.32 -156 1017 C-156.64066406 1017.04898438 -157.28132813 1017.09796875 -157.94140625 1017.1484375 C-161.88733504 1017.48951629 -165.50865718 1017.85167009 -169.3125 1019 C-173.97073787 1020.26325095 -178.49760356 1020.48562936 -183.3046875 1020.75390625 C-185.915759 1020.70246459 -185.915759 1020.70246459 -187 1022 C-189.41285501 1022.09968309 -191.79712508 1022.13362959 -194.21054077 1022.12584114 C-194.97791667 1022.12729458 -195.74529257 1022.12874802 -196.53592229 1022.13024551 C-199.14034118 1022.13393213 -201.74470251 1022.13040686 -204.34912109 1022.12698364 C-206.22193113 1022.12813441 -208.09474094 1022.12972163 -209.96755028 1022.13171089 C-215.13968089 1022.13591029 -220.31179321 1022.13381078 -225.48392391 1022.13072467 C-231.05180426 1022.12847326 -236.61968133 1022.13194888 -242.18756104 1022.13470459 C-253.10522346 1022.13916407 -264.02287904 1022.13818503 -274.94054174 1022.13529195 C-283.80921835 1022.13303861 -292.67789302 1022.13272509 -301.54656982 1022.13381577 C-303.43595451 1022.13404561 -303.43595451 1022.13404561 -305.36350858 1022.13428011 C-307.92189932 1022.13459982 -310.48029006 1022.13492403 -313.03868079 1022.1352527 C-336.37429617 1022.13802653 -359.70990753 1022.13514417 -383.04552206 1022.1299101 C-404.36693859 1022.12516418 -425.68834915 1022.1255888 -447.00976562 1022.13037109 C-470.94171798 1022.13572092 -494.87366704 1022.13783332 -518.80562019 1022.13475883 C-521.35489019 1022.13444026 -523.90416018 1022.13412589 -526.45343018 1022.13381577 C-527.70790054 1022.13366149 -528.9623709 1022.13350721 -530.25485551 1022.13334826 C-539.11853323 1022.13248284 -547.98220884 1022.13394652 -556.84588623 1022.13629532 C-567.63962587 1022.13909254 -578.43335823 1022.13835671 -589.22709703 1022.13301457 C-594.74000735 1022.1303765 -600.2529055 1022.12937428 -605.76581573 1022.13266373 C-610.80392144 1022.13562453 -615.84200362 1022.13403753 -620.88010716 1022.12868617 C-622.7111729 1022.12756106 -624.54224058 1022.12815524 -626.37330508 1022.13056196 C-628.84538549 1022.13356415 -631.31738328 1022.13052335 -633.78945923 1022.12584114 C-634.87764918 1022.12935289 -634.87764918 1022.12935289 -635.98782277 1022.13293558 C-640.88584966 1022.11415034 -640.88584966 1022.11415034 -642 1021 C-643.32963244 1020.7979717 -644.66812121 1020.65333027 -646.0078125 1020.53515625 C-647.24144531 1020.41817383 -647.24144531 1020.41817383 -648.5 1020.29882812 C-650.22640301 1020.14340047 -651.95296301 1019.98970509 -653.6796875 1019.83789062 C-657.52379256 1019.47079053 -661.16357826 1019.05574978 -664.8671875 1017.93359375 C-668.09407363 1016.80960444 -668.09407363 1016.80960444 -672 1017 C-672 1016.34 -672 1015.68 -672 1015 C-674.64 1014.67 -677.28 1014.34 -680 1014 C-680 1013.34 -680 1012.68 -680 1012 C-682.31 1011.67 -684.62 1011.34 -687 1011 C-687 1010.34 -687 1009.68 -687 1009 C-688.65 1008.67 -690.3 1008.34 -692 1008 C-692 1007.34 -692 1006.68 -692 1006 C-693.65 1005.67 -695.3 1005.34 -697 1005 C-697 1004.34 -697 1003.68 -697 1003 C-698.32 1002.67 -699.64 1002.34 -701 1002 C-701 1001.34 -701 1000.68 -701 1000 C-702.58438921 998.39729881 -702.58438921 998.39729881 -704.625 996.75 C-714.57878412 988.26364764 -714.57878412 988.26364764 -716 984 C-716.680625 983.3503125 -716.680625 983.3503125 -717.375 982.6875 C-719.56549585 980.41275431 -720.67301478 977.84353977 -722 975 C-722.66 975 -723.32 975 -724 975 C-724.18369141 973.92685547 -724.18369141 973.92685547 -724.37109375 972.83203125 C-725.01135375 969.94887287 -725.93551556 967.41407527 -727.0625 964.6875 C-727.42472656 963.80449219 -727.78695312 962.92148438 -728.16015625 962.01171875 C-728.43730469 961.34785156 -728.71445312 960.68398437 -729 960 C-729.66 960 -730.32 960 -731 960 C-731.33 957.03 -731.66 954.06 -732 951 C-732.66 951 -733.32 951 -734 951 C-734.04898438 950.28714844 -734.09796875 949.57429688 -734.1484375 948.83984375 C-734.58269556 943.27684825 -735.43843491 938.36788001 -737 933 C-737.44147402 929.67422907 -737.74426204 926.34478337 -738 923 C-738.66 923 -739.32 923 -740 923 C-740.02289191 870.33571509 -740.04051123 817.67143069 -740.05106533 765.00714178 C-740.05231603 758.78877811 -740.05361035 752.57041444 -740.05493164 746.35205078 C-740.05532511 744.49511467 -740.05532511 744.49511467 -740.05572652 742.60066471 C-740.0600771 722.55930469 -740.0679613 702.51794755 -740.0771528 682.47658923 C-740.08650633 661.91030578 -740.09205922 641.34402383 -740.09408849 620.77773833 C-740.09546018 608.08861857 -740.09979166 595.39950691 -740.10791647 582.71038964 C-740.11320488 574.00744325 -740.11479952 565.30450105 -740.11350138 556.60155317 C-740.11286128 551.58145044 -740.1138384 546.56136188 -740.11920547 541.54126167 C-740.12408823 536.94047486 -740.12430673 532.33971168 -740.12089889 527.73892376 C-740.12047799 526.0792322 -740.12173245 524.41953915 -740.12488318 522.75985053 C-740.15865843 503.86114676 -740.15865843 503.86114676 -739 496 C-738.67 495.67 -738.34 495.34 -738 495 C-737.54953058 491.54009198 -737.18206272 488.081024 -736.83789062 484.609375 C-736.3308743 479.87722259 -735.42441042 475.56231824 -734 471 C-733.67 469.82179688 -733.34 468.64359375 -733 467.4296875 C-732.67 466.25664063 -732.34 465.08359375 -732 463.875 C-731.67 462.69679688 -731.34 461.51859375 -731 460.3046875 C-730 457 -730 457 -728.875 454.2578125 C-727.81932193 451.93735838 -727.81932193 451.93735838 -728 449 C-727.34 449 -726.68 449 -726 449 C-725.75507812 448.29617188 -725.51015625 447.59234375 -725.2578125 446.8671875 C-721.0778401 435.82629487 -713.09140735 421.7276049 -703 415 C-703 414.34 -703 413.68 -703 413 C-702.42765625 412.7215625 -701.8553125 412.443125 -701.265625 412.15625 C-699.03382434 411.01726208 -696.89129126 409.80063617 -694.75 408.5 C-694.04359375 408.0771875 -693.3371875 407.654375 -692.609375 407.21875 C-692.07828125 406.8165625 -691.5471875 406.414375 -691 406 C-691 405.34 -691 404.68 -691 404 C-689.35 403.67 -687.7 403.34 -686 403 C-686 402.34 -686 401.68 -686 401 C-684.02 400.67 -682.04 400.34 -680 400 C-680 399.34 -680 398.68 -680 398 C-677.69 397.67 -675.38 397.34 -673 397 C-673 396.34 -673 395.68 -673 395 C-670.03 394.67 -667.06 394.34 -664 394 C-664 393.34 -664 392.68 -664 392 C-663.14535156 391.93941406 -662.29070312 391.87882813 -661.41015625 391.81640625 C-660.30542969 391.73261719 -659.20070313 391.64882813 -658.0625 391.5625 C-656.96035156 391.48128906 -655.85820313 391.40007812 -654.72265625 391.31640625 C-652.08890097 391.29581916 -652.08890097 391.29581916 -651 390 C-645.8079475 389.20011719 -640.79775916 388.87298282 -635.53720188 388.86412811 C-634.82759564 388.86158549 -634.11798941 388.85904287 -633.38687995 388.8564232 C-631.0211353 388.84913332 -628.65544319 388.84882869 -626.28968811 388.84851074 C-624.57170321 388.84465788 -622.85371924 388.84036988 -621.13573641 388.83568525 C-616.4240893 388.82407516 -611.71245185 388.81856825 -607.00079334 388.81405044 C-601.91633385 388.80809034 -596.83188714 388.79642569 -591.74743652 388.78541565 C-582.94110006 388.76708269 -574.13476329 388.75223086 -565.32841682 388.73963928 C-552.59485002 388.72134035 -539.86130153 388.69667687 -527.12774926 388.67026538 C-506.4666011 388.6274909 -485.80544792 388.58836864 -465.14428711 388.55224609 C-463.9079683 388.55008329 -462.67164949 388.54792049 -461.39786648 388.54569215 C-451.36227836 388.52816404 -441.32668993 388.51081415 -431.29110146 388.49348927 C-422.50843924 388.47832324 -413.72577715 388.46309187 -404.94311523 388.44775391 C-403.08771127 388.4445156 -403.08771127 388.4445156 -401.19482441 388.44121188 C-380.60234296 388.40515072 -360.00987082 388.3652054 -339.41740221 388.32245111 C-326.70776541 388.29625258 -313.99813149 388.27360402 -301.28848057 388.25546753 C-292.59129038 388.24283578 -283.89411125 388.22672313 -275.19693244 388.20781839 C-270.17206638 388.19702398 -265.1472111 388.1879187 -260.12233543 388.18312263 C-255.53045353 388.17871472 -250.93860414 388.16980275 -246.34673768 388.15717942 C-244.67806324 388.15341947 -243.00938394 388.15138123 -241.34070528 388.15115923 C-239.08773482 388.15062418 -236.83486376 388.14406197 -234.58191013 388.13587189 C-233.32595494 388.13375592 -232.06999974 388.13163995 -230.7759853 388.12945986 C-228.09206221 388.31652838 -228.09206221 388.31652838 -227 387 C-224.93076634 386.77092174 -222.85452523 386.60456448 -220.77734375 386.46484375 C-218.88725586 386.33432617 -218.88725586 386.33432617 -216.95898438 386.20117188 C-215.61849607 386.11318236 -214.27800119 386.02529305 -212.9375 385.9375 C-211.59307024 385.84612471 -210.24866869 385.75433325 -208.90429688 385.66210938 C-205.60312026 385.43729806 -202.30171152 385.2167902 -199 385 C-199 384.34 -199 383.68 -199 383 C-197.948125 383.020625 -196.89625 383.04125 -195.8125 383.0625 C-192.67295096 383.01103198 -190.03116604 382.73482813 -187 382 C-187 381.34 -187 380.68 -187 380 C-184.03 379.67 -181.06 379.34 -178 379 C-178 378.34 -178 377.68 -178 377 C-177.0925 376.95875 -176.185 376.9175 -175.25 376.875 C-169.34298458 376.08333814 -164.17739441 372.77998025 -159 370 C-159 369.34 -159 368.68 -159 368 C-157.35 367.67 -155.7 367.34 -154 367 C-154 366.34 -154 365.68 -154 365 C-152.93265625 364.62294922 -152.93265625 364.62294922 -151.84375 364.23828125 C-144.82312679 361.18122417 -137.9908783 355.82269135 -133 350 C-132.67 349.01 -132.34 348.02 -132 347 C-131.01 346.67 -130.02 346.34 -129 346 C-119.86555245 336.5592692 -107 320.57280945 -107 307 C-106.34 307 -105.68 307 -105 307 C-102.7873664 299.07877171 -101.38825592 291.3001753 -100.4296875 283.15234375 C-100 280 -100 280 -99 277 C-98.76023158 272.35816401 -98.81479726 267.70984827 -98.8125 263.0625 C-98.80025391 261.79341797 -98.78800781 260.52433594 -98.77539062 259.21679688 C-98.76313752 251.25636225 -99.40839148 243.7955907 -101 236 C-101.15670166 235.18362061 -101.31340332 234.36724121 -101.47485352 233.52612305 C-103.15424758 224.96328664 -104.89688566 216.7655238 -109 209 C-109.36867188 208.20722656 -109.73734375 207.41445313 -110.1171875 206.59765625 C-113.11795706 200.23327899 -116.86187451 194.67323656 -121 189 C-121.45632813 188.32582031 -121.91265625 187.65164063 -122.3828125 186.95703125 C-124.89181422 183.25664821 -127.47539039 180.71123816 -131 178 C-131.56332031 177.24589844 -132.12664063 176.49179687 -132.70703125 175.71484375 C-135.50231606 172.40526463 -138.58818679 170.14868445 -142.125 167.6875 C-143.07439453 167.0059082 -143.07439453 167.0059082 -144.04296875 166.31054688 C-147.21406297 163.83329148 -147.21406297 163.83329148 -151 163 C-151 162.34 -151 161.68 -151 161 C-152.28913487 160.32845067 -153.58140204 159.66291141 -154.875 159 C-155.59429688 158.62875 -156.31359375 158.2575 -157.0546875 157.875 C-158.94848977 156.86326254 -158.94848977 156.86326254 -161 157 C-161 156.34 -161 155.68 -161 155 C-163.57952403 153.82421696 -166.16303938 152.659209 -168.75 151.5 C-169.84441406 150.99919922 -169.84441406 150.99919922 -170.9609375 150.48828125 C-171.66992188 150.17246094 -172.37890625 149.85664063 -173.109375 149.53125 C-173.75874023 149.23798828 -174.40810547 148.94472656 -175.07714844 148.64257812 C-177.29439832 147.78869986 -177.29439832 147.78869986 -181 148 C-181 147.34 -181 146.68 -181 146 C-181.64066406 145.87882812 -182.28132813 145.75765625 -182.94140625 145.6328125 C-188.04952246 144.64316256 -192.9979471 143.44289987 -198 142 C-203.09402677 140.93358088 -207.99476387 140.858856 -213.17217541 140.87136555 C-214.09090145 140.86961251 -215.00962749 140.86785947 -215.95619372 140.86605331 C-219.04545172 140.8613885 -222.13466275 140.86386007 -225.22392273 140.86628723 C-227.45690363 140.8644195 -229.6898842 140.86211895 -231.92286426 140.85942191 C-238.06772813 140.85329277 -244.21257841 140.85343882 -250.35744464 140.85461628 C-256.3013079 140.8547991 -262.24516716 140.85031117 -268.18902845 140.8460034 C-281.85015537 140.8363293 -295.51127854 140.83351912 -309.17240848 140.83294634 C-319.72280211 140.83248687 -330.27319427 140.83042892 -340.82358742 140.82724571 C-343.8600646 140.82634817 -346.89654179 140.82545836 -349.93301898 140.82457083 C-350.68789149 140.82434979 -351.442764 140.82412874 -352.22051143 140.82390099 C-373.45598365 140.81774614 -394.69145537 140.81380049 -415.92692852 140.81424427 C-417.12803366 140.81426764 -417.12803366 140.81426764 -418.35340356 140.81429148 C-422.41190072 140.81437459 -426.47039788 140.81447363 -430.52889504 140.81457619 C-431.73794918 140.8146061 -431.73794918 140.8146061 -432.97142865 140.81463663 C-434.60143088 140.81467706 -436.23143311 140.81471886 -437.86143534 140.81476202 C-463.21842031 140.8153747 -488.5753919 140.80786986 -513.93237305 140.79418945 C-542.41931245 140.77882673 -570.90624306 140.77022336 -599.39318687 140.77115268 C-602.43123583 140.77122731 -605.46928479 140.77127601 -608.50733376 140.77130699 C-609.25538066 140.77131865 -610.00342757 140.7713303 -610.77414256 140.77134231 C-622.80926511 140.77137307 -634.84437604 140.76498867 -646.87949514 140.75637473 C-658.97719894 140.74789514 -671.07488575 140.74691068 -683.17259087 140.75348405 C-689.72574483 140.75685283 -696.27886517 140.75679126 -702.83201599 140.7481308 C-708.83206587 140.74028283 -714.83204021 140.74167986 -720.83208821 140.75041493 C-723.00167333 140.75195368 -725.17126404 140.75011969 -727.34084257 140.74455485 C-739.68124646 140.7150012 -751.252166 140.72806036 -763 145 Z M15.70703125 147.48828125 C11.82207681 148.22266658 7.93256813 148.60674319 4 149 C4 149.66 4 150.32 4 151 C0.7 151.33 -2.6 151.66 -6 152 C-6 152.66 -6 153.32 -6 154 C-7.051875 154.04125 -8.10375 154.0825 -9.1875 154.125 C-15.62117796 154.87849382 -21.27394593 158.1457017 -27 161 C-27 161.66 -27 162.32 -27 163 C-28.65 163.33 -30.3 163.66 -32 164 C-32 164.66 -32 165.32 -32 166 C-32.7425 166.28875 -33.485 166.5775 -34.25 166.875 C-36.56739797 167.82302644 -38.77917115 168.84845911 -41 170 C-41 170.66 -41 171.32 -41 172 C-41.556875 172.061875 -42.11375 172.12375 -42.6875 172.1875 C-45.96489609 173.33901755 -47.6195768 175.5034586 -50 178 C-50.928125 178.721875 -51.85625 179.44375 -52.8125 180.1875 C-53.534375 180.785625 -54.25625 181.38375 -55 182 C-55 182.66 -55 183.32 -55 184 C-56.485 184.495 -56.485 184.495 -58 185 C-59.65899675 186.55847144 -59.65899675 186.55847144 -61.1875 188.4375 C-61.98220703 189.36369141 -61.98220703 189.36369141 -62.79296875 190.30859375 C-64.1936275 191.92500802 -64.1936275 191.92500802 -64 194 C-64.66 194 -65.32 194 -66 194 C-68.96235695 197.63323689 -68.96235695 197.63323689 -70 202 C-70.66 202 -71.32 202 -72 202 C-72.66 203.093125 -73.32 204.18625 -74 205.3125 C-74.37125 205.92738281 -74.7425 206.54226563 -75.125 207.17578125 C-76.21623999 209.11361926 -76.21623999 209.11361926 -76 212 C-76.66 212 -77.32 212 -78 212 C-78.67467562 213.74692795 -79.33944156 215.49768525 -80 217.25 C-80.556875 218.71179688 -80.556875 218.71179688 -81.125 220.203125 C-82.19905238 223.14783138 -82.19905238 223.14783138 -82 227 C-82.66 227 -83.32 227 -84 227 C-84.13277344 227.78246094 -84.26554687 228.56492187 -84.40234375 229.37109375 C-84.66724609 230.88896484 -84.66724609 230.88896484 -84.9375 232.4375 C-85.19853516 233.95150391 -85.19853516 233.95150391 -85.46484375 235.49609375 C-86 238 -86 238 -87 239 C-89.13676186 254.82786564 -90.07619164 274.77142508 -85 290 C-84.63729412 291.99488234 -84.29359301 293.9937811 -84 296 C-83.34 296 -82.68 296 -82 296 C-81.67 298.97 -81.34 301.94 -81 305 C-80.34 305 -79.68 305 -79 305 C-78.896875 306.03125 -78.79375 307.0625 -78.6875 308.125 C-78.00872203 311.95083945 -76.88841205 314.63370025 -75 318 C-74.34 318 -73.68 318 -73 318 C-72.773125 318.66 -72.54625 319.32 -72.3125 320 C-69.56134659 326.28835064 -66.03911514 331.32082165 -61 336 C-59.8309791 337.18518248 -58.66445958 338.37283566 -57.5 339.5625 C-52.95388014 344.73194568 -52.95388014 344.73194568 -47 347 C-47 347.66 -47 348.32 -47 349 C-45.68 349.33 -44.36 349.66 -43 350 C-43 350.66 -43 351.32 -43 352 C-41.88625 352.66 -40.7725 353.32 -39.625 354 C-38.99851562 354.37125 -38.37203125 354.7425 -37.7265625 355.125 C-36.02527333 356.15068348 -36.02527333 356.15068348 -34 356 C-34 356.66 -34 357.32 -34 358 C-32.56570999 358.67354499 -31.12742943 359.33859701 -29.6875 360 C-28.48673828 360.556875 -28.48673828 360.556875 -27.26171875 361.125 C-24.93786041 362.18040667 -24.93786041 362.18040667 -22 362 C-22 362.66 -22 363.32 -22 364 C-19.69 364.33 -17.38 364.66 -15 365 C-15 365.66 -15 366.32 -15 367 C-12.03 367.33 -9.06 367.66 -6 368 C-6 368.66 -6 369.32 -6 370 C-2.04 370.33 1.92 370.66 6 371 C6 371.66 6 372.32 6 373 C14.16504543 373.94030822 22.2548845 374.15617426 30.47021484 374.13037109 C32.49714635 374.12500755 34.52385638 374.13035247 36.55078125 374.13671875 C44.09128361 374.12931885 51.50697696 373.86291635 59 373 C59 372.34 59 371.68 59 371 C62.96 370.67 66.92 370.34 71 370 C71 369.34 71 368.68 71 368 C72.14855469 367.9175 73.29710937 367.835 74.48046875 367.75 C79.31551253 367.14495376 83.06437572 365.29454871 87.3125 363 C94.80263158 359.06578947 94.80263158 359.06578947 98 358 C98 357.34 98 356.68 98 356 C99.11375 355.566875 99.11375 355.566875 100.25 355.125 C102.56739797 354.17697356 104.77917115 353.15154089 107 352 C107 351.34 107 350.68 107 350 C108.32 349.67 109.64 349.34 111 349 C111 348.34 111 347.68 111 347 C111.5775 346.731875 112.155 346.46375 112.75 346.1875 C115.05550043 344.97070811 117.02056192 343.69666121 119 342 C119 341.34 119 340.68 119 340 C119.99 339.67 120.98 339.34 122 339 C122 338.34 122 337.68 122 337 C122.99 336.67 123.98 336.34 125 336 C126.89610305 333.98432421 126.89610305 333.98432421 128.6875 331.5625 C129.31011719 330.75941406 129.93273438 329.95632813 130.57421875 329.12890625 C132.18548601 327.15008209 132.18548601 327.15008209 132 325 C132.66 325 133.32 325 134 325 C134.33 323.35 134.66 321.7 135 320 C135.66 320 136.32 320 137 320 C141.39397013 312.55954392 144.48845774 305.25384116 147 297 C147.32484375 296.0819458 147.6496875 295.1638916 147.984375 294.21801758 C151.2482564 283.87637798 151.32331489 272.9345888 151.26074219 262.18652344 C151.25000821 260.00167107 151.26071795 257.81764045 151.2734375 255.6328125 C151.28534433 244.49554225 150.69251633 233.60529363 147 223 C146.63893903 221.33911955 146.29537827 219.67381019 146 218 C145.34 218 144.68 218 144 218 C143.67 215.69 143.34 213.38 143 211 C142.34 211 141.68 211 141 211 C140.67 209.02 140.34 207.04 140 205 C139.34 205 138.68 205 138 205 C137.896875 204.278125 137.79375 203.55625 137.6875 202.8125 C136.93206053 199.72206579 135.84468685 197.58256159 134 195 C133.34 195 132.68 195 132 195 C131.938125 194.443125 131.87625 193.88625 131.8125 193.3125 C130.66256411 190.03960553 128.47920774 188.40504341 126 186 C124.84951172 184.79730469 124.84951172 184.79730469 123.67578125 183.5703125 C118.27628782 177.98339864 112.75147481 172.92104883 106 169 C105.34 169 104.68 169 104 169 C104 168.34 104 167.68 104 167 C102.906875 166.34 101.81375 165.68 100.6875 165 C100.07261719 164.62875 99.45773437 164.2575 98.82421875 163.875 C96.88638074 162.78376001 96.88638074 162.78376001 94 163 C94 162.34 94 161.68 94 161 C92.02 160.67 90.04 160.34 88 160 C88 159.34 88 158.68 88 158 C85.79195441 157.20752336 83.58357503 156.4159987 81.375 155.625 C80.14523437 155.18414062 78.91546875 154.74328125 77.6484375 154.2890625 C74.44269086 153.15641112 71.22878869 152.0647212 68 151 C67.07574219 150.65066406 66.15148438 150.30132812 65.19921875 149.94140625 C61.0914231 148.73264099 57.06480222 148.33410564 52.8125 147.9375 C51.2145513 147.78294221 49.61687755 147.62550784 48.01953125 147.46484375 C47.31932861 147.399021 46.61912598 147.33319824 45.89770508 147.26538086 C44 147 44 147 41 146 C38.50691786 145.87577922 36.0556304 145.80988391 33.5625 145.8125 C32.49213501 145.81262085 32.49213501 145.81262085 31.40014648 145.81274414 C26.05112572 145.86961677 20.96522394 146.47404709 15.70703125 147.48828125 Z " fill="#62DCF8" transform="translate(1455,337)"/>
<path d="M0 0 C0.75351746 0.17833374 1.50703491 0.35666748 2.28338623 0.54040527 C83.36263018 19.79008961 163.6470778 50.81927534 241 96 C241.99418945 96.58555664 242.98837891 97.17111328 244.01269531 97.77441406 C263.77013263 109.42560812 283.29523394 121.46240923 302.07128906 134.64794922 C304.0499079 136.03498607 306.03619408 137.41051094 308.0234375 138.78515625 C335.79001569 158.08407547 362.71663302 179.21817856 387.75 201.96484375 C389.74989375 203.77377543 391.77269432 205.54891801 393.8125 207.3125 C401.86548476 214.33640151 409.69814949 221.60477152 417.19140625 229.22265625 C418.98381159 230.9840913 420.83817184 232.61966801 422.75 234.25 C430.46914261 240.90338327 437.62713653 248.24946294 444.2265625 256.0078125 C446.39113418 258.43937981 448.68429453 260.71211081 451 263 C454.54918157 266.5117655 457.91968457 270.09008901 461.1640625 273.8828125 C463.3520617 276.40599455 465.61293113 278.85554519 467.875 281.3125 C471.94540056 285.77522832 475.80176909 290.36258 479.59375 295.0625 C482.29780389 298.36355281 485.0815942 301.58721603 487.875 304.8125 C493.81456225 311.7036635 499.45043228 318.79292486 505 326 C505.59828613 326.77230957 506.19657227 327.54461914 506.81298828 328.34033203 C561.07323509 398.43501565 604.99855696 476.76793489 695.39111328 878.03173828 C695.37402315 882.58839343 695.38422028 887.14452215 695.40144253 891.70115948 C695.66877485 975.53077562 683.15594545 1059.56145918 576.70068359 1334.12451172 C575.15047495 1336.7455794 573.61677076 1339.37577311 572.08613586 1342.00830078 C556.22788047 1369.22393051 538.95555574 1395.83265741 520 1421 C519.38253906 1421.82419434 518.76507812 1422.64838867 518.12890625 1423.49755859 C509.7776968 1434.62639984 501.23882197 1445.57805102 492.38720703 1456.31298828 C491.1345001 1457.83643159 489.8927474 1459.36886635 488.65234375 1460.90234375 C479.66682304 1472.00786027 470.25336697 1482.74074383 460.5546875 1493.2265625 C458.13271758 1495.85591823 455.75044666 1498.51614995 453.375 1501.1875 C449.75472666 1505.22798364 445.96712577 1509.05479679 442.10546875 1512.86328125 C440.20928662 1514.78760709 438.43820968 1516.75658185 436.6875 1518.8125 C430.06277341 1526.51567045 422.72666483 1533.64744278 414.9921875 1540.2265625 C412.56062019 1542.39113418 410.28788919 1544.68429453 408 1547 C404.4882345 1550.54918157 400.90991099 1553.91968457 397.1171875 1557.1640625 C394.59400545 1559.3520617 392.14445481 1561.61293113 389.6875 1563.875 C385.22477168 1567.94540056 380.63742 1571.80176909 375.9375 1575.59375 C372.63644719 1578.29780389 369.41278397 1581.0815942 366.1875 1583.875 C359.2963365 1589.81456225 352.20707514 1595.45043228 345 1601 C344.22769043 1601.59828613 343.45538086 1602.19657227 342.65966797 1602.81298828 C272.56498435 1657.07323509 194.23206511 1700.99855696 -327.8442688 1784.77734375 C-360.58336814 1780.53164252 -392.88313459 1774.63047097 -425 1767 C-426.13027618 1766.73249939 -426.13027618 1766.73249939 -427.28338623 1766.45959473 C-508.36263018 1747.20991039 -588.6470778 1716.18072466 -666 1671 C-666.99418945 1670.41444336 -667.98837891 1669.82888672 -669.01269531 1669.22558594 C-688.77013263 1657.57439188 -708.29523394 1645.53759077 -727.07128906 1632.35205078 C-729.0499079 1630.96501393 -731.03619408 1629.58948906 -733.0234375 1628.21484375 C-760.79001569 1608.91592453 -787.71663302 1587.78182144 -812.75 1565.03515625 C-814.74989375 1563.22622457 -816.77269432 1561.45108199 -818.8125 1559.6875 C-826.86548476 1552.66359849 -834.69814949 1545.39522848 -842.19140625 1537.77734375 C-843.98381159 1536.0159087 -845.83817184 1534.38033199 -847.75 1532.75 C-855.46914261 1526.09661673 -862.62713653 1518.75053706 -869.2265625 1510.9921875 C-871.39113418 1508.56062019 -873.68429453 1506.28788919 -876 1504 C-879.54918157 1500.4882345 -882.91968457 1496.90991099 -886.1640625 1493.1171875 C-888.3520617 1490.59400545 -890.61293113 1488.14445481 -892.875 1485.6875 C-896.94540056 1481.22477168 -900.80176909 1476.63742 -904.59375 1471.9375 C-907.29780389 1468.63644719 -910.0815942 1465.41278397 -912.875 1462.1875 C-918.81456225 1455.2963365 -924.45043228 1448.20707514 -930 1441 C-930.8974292 1439.84153564 -930.8974292 1439.84153564 -931.81298828 1438.65966797 C-986.07323509 1368.56498435 -1029.99855696 1290.23206511 -1120.39111328 888.96826172 C-1120.37402315 884.41160657 -1120.38422028 879.85547785 -1120.40144253 875.29884052 C-1120.67720383 788.82607783 -1107.27486424 702.33558728 -1000 430 C-999.01142353 428.30501311 -998.02286698 426.61001454 -997.03482056 424.91471863 C-985.45847051 405.09278665 -972.94186799 385.9534713 -960 367 C-959.37867188 366.08879395 -958.75734375 365.17758789 -958.1171875 364.23876953 C-941.26908898 339.6533649 -922.54627606 316.1558752 -903.08984375 293.59375 C-901.08853441 291.27215595 -899.1016574 288.93965113 -897.12890625 286.59375 C-887.46112935 275.13137555 -877.26643812 264.12130927 -866.57226562 253.60791016 C-864.90559332 251.90345305 -863.35529194 250.1293207 -861.8125 248.3125 C-855.13071378 240.57727902 -847.77433948 233.39311035 -839.9921875 226.7734375 C-837.56062019 224.60886582 -835.28788919 222.31570547 -833 220 C-829.4882345 216.45081843 -825.90991099 213.08031543 -822.1171875 209.8359375 C-819.59400545 207.6479383 -817.14445481 205.38706887 -814.6875 203.125 C-810.22477168 199.05459944 -805.63742 195.19823091 -800.9375 191.40625 C-797.63644719 188.70219611 -794.41278397 185.9184058 -791.1875 183.125 C-784.2963365 177.18543775 -777.20707514 171.54956772 -770 166 C-769.22769043 165.40171387 -768.45538086 164.80342773 -767.65966797 164.18701172 C-697.56498435 109.92676491 -619.23206511 66.00144304 -287 -22 C-285.77394043 -22.09619629 -284.54788086 -22.19239258 -283.28466797 -22.29150391 C-267.8664635 -23.47385107 -252.45477491 -24.19736817 -237 -24.625 C-236.25513336 -24.64564514 -235.51026672 -24.66629028 -234.74282837 -24.68756104 C-155.78265475 -26.80531299 -76.81412934 -18.24985024 0 0 Z M-259 33 C-259.79847351 33.0401825 -260.59694702 33.08036499 -261.4196167 33.12176514 C-318.71160618 36.08424096 -375.45200413 44.66939579 -431 59 C-432.12927917 59.2913382 -432.12927917 59.2913382 -433.28137207 59.58856201 C-456.8662407 65.70308738 -479.99879493 72.97793939 -503 81 C-503.6572406 81.22796265 -504.3144812 81.45592529 -504.99163818 81.6907959 C-572.75228313 105.19858815 -637.92990889 138.36453464 -697 179 C-697.8343457 179.57314941 -698.66869141 180.14629883 -699.52832031 180.73681641 C-731.22759198 202.57801646 -761.86744353 226.10590933 -790.0859375 252.33203125 C-792.32137375 254.37868401 -794.57650114 256.38319372 -796.86328125 258.37109375 C-807.68445595 267.80771957 -817.95928797 277.86713518 -828.125 288 C-828.90593018 288.77633789 -829.68686035 289.55267578 -830.49145508 290.35253906 C-834.58750959 294.45962464 -838.50915767 298.65307345 -842.29345703 303.04833984 C-845.22096873 306.39634106 -848.30957863 309.59130404 -851.375 312.8125 C-856.47640396 318.20949231 -861.32879066 323.67910122 -865.95703125 329.48828125 C-868.07809651 332.0960154 -870.29600405 334.58051377 -872.5625 337.0625 C-876.9367995 341.87498495 -880.98976126 346.88273009 -885 352 C-885.79792969 353.00289063 -886.59585938 354.00578125 -887.41796875 355.0390625 C-912.58463704 386.72129639 -935.54369631 420.08757081 -956 455 C-956.42152344 455.71687988 -956.84304688 456.43375977 -957.27734375 457.17236328 C-997.64782612 526.08009604 -1027.94949149 600.03678977 -1047 1103 C-1046.80577454 1103.75285278 -1046.61154907 1104.50570557 -1046.41143799 1105.28137207 C-1040.29691262 1128.8662407 -1033.02206061 1151.99879493 -1025 1175 C-1024.77203735 1175.6572406 -1024.54407471 1176.3144812 -1024.3092041 1176.99163818 C-1000.80141185 1244.75228313 -967.63546536 1309.92990889 -927 1369 C-926.42685059 1369.8343457 -925.85370117 1370.66869141 -925.26318359 1371.52832031 C-913.39234774 1388.75708292 -901.10894109 1405.68943209 -888 1422 C-887.25492188 1422.928125 -886.50984375 1423.85625 -885.7421875 1424.8125 C-881.07373351 1430.56858664 -876.2756094 1436.20592679 -871.43286133 1441.81518555 C-868.46504278 1445.26033568 -865.58053821 1448.75272007 -862.75 1452.3125 C-856.89341899 1459.52467299 -850.40679828 1466.15788653 -844.00488281 1472.88183594 C-842.16315263 1474.82762881 -840.33869923 1476.78734642 -838.5234375 1478.7578125 C-831.86632303 1485.98337128 -825.06139007 1493.04144036 -818.125 1500 C-817.34020264 1500.78938965 -816.55540527 1501.5787793 -815.74682617 1502.39208984 C-811.60511408 1506.52281829 -807.38020506 1510.48218466 -802.94726562 1514.29785156 C-799.60035757 1517.22345875 -796.40718792 1520.31101374 -793.1875 1523.375 C-787.79050769 1528.47640396 -782.32089878 1533.32879066 -776.51171875 1537.95703125 C-773.9039846 1540.07809651 -771.41948623 1542.29600405 -768.9375 1544.5625 C-764.12506133 1548.93675744 -759.11770878 1552.9903991 -754 1557 C-752.93968439 1557.84061661 -751.8798112 1558.68179149 -750.8203125 1559.5234375 C-742.00205084 1566.51302739 -733.05112849 1573.31505611 -724 1580 C-723.29891113 1580.51820312 -722.59782227 1581.03640625 -721.87548828 1581.5703125 C-699.1308846 1598.32569303 -675.3721263 1613.71959533 -651 1628 C-650.28312012 1628.42152344 -649.56624023 1628.84304688 -648.82763672 1629.27734375 C-579.91990396 1669.64782612 -505.96321023 1699.94949149 -3 1719 C-2.24714722 1718.80577454 -1.49429443 1718.61154907 -0.71862793 1718.41143799 C22.8662407 1712.29691262 45.99879493 1705.02206061 69 1697 C69.6572406 1696.77203735 70.3144812 1696.54407471 70.99163818 1696.3092041 C138.75228313 1672.80141185 203.92990889 1639.63546536 263 1599 C263.8343457 1598.42685059 264.66869141 1597.85370117 265.52832031 1597.26318359 C297.22759198 1575.42198354 327.86744353 1551.89409067 356.0859375 1525.66796875 C358.32137375 1523.62131599 360.57650114 1521.61680628 362.86328125 1519.62890625 C373.68445595 1510.19228043 383.95928797 1500.13286482 394.125 1490 C394.90593018 1489.22366211 395.68686035 1488.44732422 396.49145508 1487.64746094 C400.64049342 1483.48724884 404.62731147 1479.24766866 408.43896484 1474.77539062 C410.0561519 1472.93613753 411.75170967 1471.21440774 413.5 1469.5 C417.21182466 1465.83733858 420.61067228 1461.96063486 424 1458 C424.89571402 1456.95692878 425.7915573 1455.91396855 426.6875 1454.87109375 C428.73780302 1452.48338187 430.78380078 1450.09205037 432.828125 1447.69921875 C434.86716499 1445.31513925 436.91871722 1442.94307537 438.984375 1440.58203125 C445.52220918 1433.08456461 451.65746463 1425.35430248 457.6484375 1417.4140625 C459.89141967 1414.44405381 462.16685234 1411.5043485 464.4765625 1408.5859375 C471.65240077 1399.51254622 478.38720005 1390.25448906 484.84375 1380.65625 C487.37132805 1376.90223629 489.97530757 1373.21192293 492.61694336 1369.53759766 C498.73172514 1361.02224184 504.27047544 1352.25001411 509.64550781 1343.25292969 C510.98464396 1341.02554173 512.3435179 1338.81168273 513.7109375 1336.6015625 C557.5362292 1265.74634757 590.65644548 1188.7577394 614 1099 C614.18069031 1098.29397644 614.36138062 1097.58795288 614.54754639 1096.86053467 C636.5884664 1010.53338799 643.91946044 920.48066414 613 675 C612.80577454 674.24714722 612.61154907 673.49429443 612.41143799 672.71862793 C606.29691262 649.1337593 599.02206061 626.00120507 591 603 C590.77203735 602.3427594 590.54407471 601.6855188 590.3092041 601.00836182 C566.80141185 533.24771687 533.63546536 468.07009111 493 409 C492.42685059 408.1656543 491.85370117 407.33130859 491.26318359 406.47167969 C469.55442999 374.96463445 446.12863617 344.66310681 420.2421875 316.4609375 C418.22971893 314.25213053 416.26341984 312.01306702 414.3125 309.75 C411.6143894 306.64116998 408.76759221 303.74295179 405.82958984 300.86206055 C404.12040645 299.12254337 402.54121871 297.33220637 400.96484375 295.47265625 C396.69519434 290.56385805 392.12004596 285.96940585 387.51196289 281.3815918 C386.06475615 279.93974779 384.62297974 278.49262884 383.18164062 277.04492188 C378.54864298 272.40859811 373.85713527 267.89970045 368.87915039 263.6340332 C365.54898141 260.7382529 362.38378619 257.66671622 359.1875 254.625 C353.79050769 249.52359604 348.32089878 244.67120934 342.51171875 240.04296875 C339.9039846 237.92190349 337.41948623 235.70399595 334.9375 233.4375 C330.12501505 229.0632005 325.11726991 225.01023874 320 221 C318.49566406 219.80310547 318.49566406 219.80310547 316.9609375 218.58203125 C285.27870361 193.41536296 251.91242919 170.45630369 217 150 C215.92468018 149.36771484 215.92468018 149.36771484 214.82763672 148.72265625 C145.91990396 108.35217388 71.96321023 78.05050851 -259 33 Z " fill="#5FDAF8" transform="translate(1258,147)"/>
</svg>
