<?xml version="1.0" standalone="no"?>
<!DOCTYPE svg PUBLIC "-//W3C//DTD SVG 20010904//EN"
 "http://www.w3.org/TR/2001/REC-SVG-20010904/DTD/svg10.dtd">
<svg version="1.0" xmlns="http://www.w3.org/2000/svg"
 width="300.000000pt" height="300.000000pt" viewBox="0 0 300.000000 300.000000"
 preserveAspectRatio="xMidYMid meet">
<metadata>
Created by potrace 1.10, written by Peter Selinger 2001-2011
</metadata>
<g transform="translate(0.000000,300.000000) scale(0.100000,-0.100000)"
fill="#000000" stroke="none">
<path d="M1365 2819 c-573 -64 -1036 -493 -1146 -1061 -39 -203 -21 -464 46
-663 35 -104 122 -272 187 -360 197 -265 510 -458 838 -516 118 -21 355 -16
477 10 267 56 473 169 669 365 193 194 303 398 361 669 25 116 25 390 -1 507
-38 176 -106 336 -202 481 -66 98 -214 251 -312 322 -80 57 -245 149 -292 162
-14 4 27 -20 90 -52 150 -76 235 -137 345 -248 209 -209 346 -495 371 -776 25
-271 -36 -561 -163 -774 -123 -204 -316 -394 -496 -484 -26 -13 -50 -21 -54
-18 -3 4 -1 7 6 7 16 0 164 95 200 129 172 160 241 247 321 402 103 201 143
381 136 610 -3 79 -7 151 -9 159 -7 27 -20 93 -22 109 -1 9 -4 23 -8 31 -3 8
-16 44 -27 79 -95 288 -341 567 -628 710 -199 100 -469 148 -682 122 -97 -12
-224 -40 -216 -48 2 -2 30 3 62 11 232 62 538 35 777 -69 577 -250 871 -901
681 -1507 -124 -394 -450 -704 -854 -813 -511 -136 -1051 67 -1343 507 -391
588 -209 1384 399 1744 43 26 122 64 174 86 52 22 82 37 67 33 -62 -13 -211
-86 -306 -149 -229 -152 -406 -384 -498 -650 -77 -226 -78 -541 -2 -779 30
-92 121 -274 173 -345 25 -34 42 -62 36 -62 -5 0 -14 9 -20 19 -5 11 -16 25
-23 33 -43 43 -117 175 -182 324 -18 42 -52 167 -64 239 -10 55 -15 317 -8
375 14 110 52 247 99 355 28 63 112 212 127 225 4 3 15 18 25 34 32 51 177
195 254 253 88 66 231 143 341 183 233 85 492 97 781 35 24 -5 24 -5 3 4 -77
34 -347 56 -488 40z"/>
<path d="M1338 2669 c-31 -4 -72 -13 -90 -18 -33 -11 -32 -11 7 -5 22 3 67 10
100 15 117 17 296 6 445 -26 l25 -6 -25 11 c-74 33 -330 49 -462 29z"/>
<path d="M1923 2591 c358 -142 606 -428 706 -816 18 -68 24 -135 25 -255 4
-449 -249 -850 -659 -1045 -187 -90 -348 -122 -551 -111 -386 20 -726 223
-929 553 -111 181 -164 369 -165 590 -1 161 4 201 40 323 102 341 336 609 652
745 37 16 66 31 64 33 -7 6 -129 -49 -198 -89 -266 -155 -465 -420 -544 -726
-35 -132 -44 -346 -20 -482 84 -481 446 -853 931 -956 99 -22 320 -25 425 -6
602 107 1025 658 969 1261 -42 449 -338 839 -756 996 -104 39 -96 27 10 -15z"/>
<path d="M1150 2319 c-141 -4 -173 -8 -220 -28 -88 -36 -143 -82 -195 -162
-53 -81 -55 -104 -57 -659 l-3 -515 31 -66 c39 -82 88 -137 152 -172 101 -55
126 -57 632 -57 282 0 489 4 523 10 155 29 258 123 302 273 15 51 16 107 13
480 -3 296 -7 430 -16 450 -6 15 -32 41 -57 59 -45 32 -56 48 -32 48 16 0 71
49 85 77 7 12 12 48 12 81 0 74 -26 117 -90 150 -80 41 -195 13 -237 -59 -17
-28 -43 -40 -43 -19 0 21 -64 80 -103 94 -47 18 -395 26 -697 15z m727 -41
c48 -32 73 -80 73 -143 0 -63 -25 -111 -73 -143 l-40 -27 -353 -5 c-400 -6
-387 -3 -432 -91 -23 -44 -23 -47 -20 -389 3 -383 2 -378 71 -421 31 -18 49
-19 409 -17 l376 3 27 25 c60 56 60 55 62 425 2 234 6 349 15 369 6 16 32 42
57 57 74 48 174 37 231 -26 l25 -27 0 -456 0 -457 -26 -56 c-37 -79 -90 -133
-167 -171 l-67 -33 -545 0 -545 0 -58 29 c-80 39 -130 90 -169 172 l-33 69 0
525 c0 524 0 525 23 581 42 105 128 180 250 220 52 17 92 18 463 16 l405 -2
41 -27z m349 1 c58 -28 84 -72 84 -141 0 -96 -65 -158 -165 -158 -87 0 -151
50 -165 127 -13 78 21 140 95 174 52 24 99 24 151 -2z m-238 -233 c6 -14 29
-35 51 -48 23 -13 41 -26 41 -29 0 -4 -12 -15 -27 -24 -45 -29 -72 -63 -82
-103 -5 -20 -11 -181 -13 -357 -4 -355 -6 -366 -71 -405 -30 -19 -53 -20 -387
-20 -338 0 -357 1 -388 20 -59 36 -61 53 -62 417 -1 194 3 340 9 355 15 41 61
76 112 87 26 6 184 11 350 11 294 0 305 1 349 22 30 15 52 36 65 60 23 44 37
48 53 14z"/>
</g>
</svg>
